<svg width="38" height="35" viewBox="0 0 38 35" fill="none" xmlns="http://www.w3.org/2000/svg">
<path d="M37.6976 18.3702C37.6976 18.462 37.6976 18.5538 37.6976 18.6558C37.6976 18.7272 37.6976 18.7986 37.6976 18.87C37.6976 18.9108 37.6976 18.9516 37.6976 19.0026C37.6976 19.074 37.6874 19.1454 37.6874 19.227C37.6874 19.3086 37.6772 19.3902 37.6772 19.4616C37.667 19.5738 37.667 19.686 37.6568 19.7982C37.6466 19.9512 37.6262 20.1042 37.616 20.2572C37.616 20.2878 37.616 20.3082 37.6058 20.3388C37.5956 20.4102 37.5956 20.4918 37.5854 20.5632C37.5752 20.6142 37.5752 20.6652 37.565 20.7162C37.5548 20.7978 37.5446 20.8692 37.5344 20.9508C37.514 21.1242 37.4834 21.2976 37.4528 21.471C37.4426 21.5424 37.4324 21.6138 37.412 21.6852C37.4018 21.7566 37.3916 21.8178 37.3712 21.8892C37.361 21.9606 37.3406 22.0218 37.3304 22.083C37.31 22.1544 37.2998 22.236 37.2794 22.3074C37.2794 22.3074 37.2794 22.3074 37.2794 22.3176C37.259 22.389 37.2488 22.4604 37.2284 22.5318C37.157 22.8276 37.0856 23.1234 37.004 23.409C36.9836 23.4804 36.9632 23.5518 36.9428 23.6232C36.9224 23.6946 36.902 23.7558 36.8816 23.8272C36.7184 24.3372 36.545 24.8472 36.341 25.3368C36.29 25.4694 36.2288 25.602 36.1676 25.7346C36.137 25.806 36.1064 25.8672 36.0758 25.9386C36.0554 25.9896 36.035 26.0406 36.0044 26.0814C35.9636 26.1732 35.9126 26.2752 35.8718 26.367C35.8412 26.4282 35.8208 26.4792 35.7902 26.5404C35.7188 26.6832 35.6474 26.8158 35.576 26.9586C35.5046 27.081 35.4434 27.2034 35.372 27.3258C35.3414 27.387 35.3108 27.438 35.27 27.4992C35.219 27.591 35.168 27.6828 35.117 27.7644C35.0864 27.8052 35.066 27.8562 35.0354 27.897C34.9232 28.0908 34.8008 28.2744 34.6784 28.458C34.6478 28.509 34.607 28.56 34.5764 28.611C34.5662 28.6314 34.556 28.6416 34.5356 28.662C34.4948 28.713 34.4642 28.764 34.4234 28.815C34.2296 29.0904 34.0256 29.3658 33.8216 29.631C33.7808 29.682 33.74 29.733 33.7094 29.784C33.6278 29.8962 33.536 29.9982 33.4442 30.1104C33.4136 30.1512 33.383 30.1818 33.3524 30.2226C33.332 30.2532 33.3116 30.2736 33.2912 30.3042C33.2606 30.3348 33.23 30.3756 33.2096 30.4062C33.1484 30.4674 33.0974 30.5388 33.0362 30.6C32.975 30.6612 32.924 30.7326 32.8628 30.7938C32.8424 30.8142 32.822 30.8346 32.8118 30.855C34.1684 28.5396 34.9436 25.8468 34.9436 22.9704C34.9436 21.369 34.709 19.8288 34.2602 18.3804H37.6976V18.3702Z" fill="#6E9E76"/>
<path d="M23.0095 4.60022V7.97642L20.2147 28.4376C19.9189 28.4478 19.6333 28.458 19.3375 28.458C19.0417 28.458 18.7459 28.4478 18.4603 28.4376L15.6655 7.97642V4.60022H23.0095Z" fill="#6E9E76"/>
<path d="M5.86334 30.8448C5.84294 30.8244 5.82254 30.804 5.81234 30.7836C5.75114 30.7224 5.68994 30.651 5.63894 30.5898C5.57774 30.5286 5.52674 30.4572 5.46554 30.396C5.43494 30.3654 5.40434 30.3246 5.38394 30.294C5.36354 30.2634 5.34314 30.243 5.32274 30.2124C5.29214 30.1716 5.26154 30.141 5.23094 30.1002C5.13914 29.988 5.05754 29.886 4.96574 29.7738C4.92494 29.7228 4.88414 29.6718 4.85354 29.6208C4.64954 29.3556 4.44554 29.0802 4.25174 28.8048C4.21094 28.7538 4.18034 28.7028 4.13954 28.6518C4.12934 28.6314 4.11914 28.611 4.09874 28.6008C4.06814 28.5498 4.02734 28.4988 3.99674 28.4478C3.87434 28.2642 3.76214 28.0806 3.63974 27.8868C3.60914 27.846 3.58874 27.795 3.55814 27.7542C3.50714 27.6624 3.45614 27.5808 3.40514 27.489C3.37454 27.4278 3.33374 27.3768 3.30314 27.3156C3.23174 27.1932 3.17054 27.0708 3.09914 26.9484C3.02774 26.8158 2.95634 26.673 2.88494 26.5302C2.85434 26.4792 2.82374 26.418 2.80334 26.3568C2.75234 26.265 2.71154 26.163 2.67074 26.0712C2.65034 26.0202 2.62994 25.9692 2.59934 25.9284C2.56874 25.857 2.53814 25.7958 2.50754 25.7244C2.44634 25.5918 2.39534 25.4592 2.33414 25.3266C2.13014 24.837 1.94654 24.327 1.79354 23.817C1.77314 23.7456 1.75274 23.6844 1.73234 23.613C1.71194 23.5416 1.69154 23.4702 1.67114 23.3988C1.58954 23.1132 1.51814 22.8174 1.44674 22.5216C1.42634 22.4502 1.41614 22.3788 1.39574 22.3074V22.2972C1.38554 22.2258 1.36514 22.1442 1.34474 22.0728C1.33454 22.0116 1.31414 21.9402 1.30394 21.879C1.29374 21.8076 1.27334 21.7464 1.26314 21.675C1.25294 21.6036 1.23254 21.5322 1.22234 21.4608C1.19174 21.2874 1.16114 21.114 1.14074 20.9406C1.13054 20.859 1.12034 20.7876 1.11014 20.706C1.09994 20.655 1.09994 20.604 1.08974 20.553C1.07954 20.4816 1.06934 20.4 1.06934 20.3286C1.06934 20.298 1.05914 20.2776 1.05914 20.247C1.04894 20.094 1.02854 19.941 1.01834 19.788C1.00814 19.6758 0.99794 19.5636 0.99794 19.4514C0.99794 19.3698 0.98774 19.2882 0.98774 19.2168C0.98774 19.1454 0.977539 19.074 0.977539 18.9924C0.977539 18.9516 0.977539 18.9108 0.977539 18.8598C0.977539 18.7884 0.977539 18.717 0.977539 18.6456C0.977539 18.5538 0.977539 18.462 0.977539 18.36H4.41494C3.96614 19.8084 3.73154 21.3486 3.73154 22.95C3.73154 25.8366 4.50674 28.5294 5.86334 30.8448Z" fill="#6E9E76"/>
<path d="M37.6975 18.3702C37.6975 18.462 37.6975 18.5538 37.6975 18.6558C37.6975 18.7272 37.6975 18.7986 37.6975 18.87C37.6975 18.9108 37.6975 18.9516 37.6975 19.0026C37.6975 19.074 37.6873 19.1454 37.6873 19.227C37.6873 19.3086 37.6771 19.3902 37.6771 19.4616C37.6669 19.5738 37.6669 19.686 37.6567 19.7982C37.6465 19.9512 37.6261 20.1042 37.6159 20.2572C37.6159 20.2878 37.6159 20.3082 37.6057 20.3388C37.5955 20.4102 37.5955 20.4918 37.5853 20.5632C37.5751 20.6142 37.5751 20.6652 37.5649 20.7162C37.5547 20.7978 37.5445 20.8692 37.5343 20.9508C37.5139 21.1242 37.4833 21.2976 37.4527 21.471C37.4425 21.5424 37.4323 21.6138 37.4119 21.6852C37.4017 21.7566 37.3915 21.8178 37.3711 21.8892C37.3609 21.9606 37.3405 22.0218 37.3303 22.083C37.3099 22.1544 37.2997 22.236 37.2793 22.3074C37.2793 22.3074 37.2793 22.3074 37.2793 22.3176C37.2589 22.389 37.2487 22.4604 37.2283 22.5318C37.1569 22.8276 37.0855 23.1234 37.0039 23.409C36.9835 23.4804 36.9631 23.5518 36.9427 23.6232C36.9223 23.6946 36.9019 23.7558 36.8815 23.8272C36.7183 24.3372 36.5449 24.8472 36.3409 25.3368C36.2899 25.4694 36.2287 25.602 36.1675 25.7346C36.1369 25.806 36.1063 25.8672 36.0757 25.9386C36.0553 25.9896 36.0349 26.0406 36.0043 26.0814C35.9635 26.1732 35.9125 26.2752 35.8717 26.367C35.8411 26.4282 35.8207 26.4792 35.7901 26.5404C35.7187 26.6832 35.6473 26.8158 35.5759 26.9586C35.5045 27.081 35.4433 27.2034 35.3719 27.3258C35.3413 27.387 35.3107 27.438 35.2699 27.4992C35.2189 27.591 35.1679 27.6828 35.1169 27.7644C35.0863 27.8052 35.0659 27.8562 35.0353 27.897C34.9231 28.0908 34.8007 28.2744 34.6783 28.458C34.6477 28.509 34.6069 28.56 34.5763 28.611C34.5661 28.6314 34.5559 28.6416 34.5355 28.662C34.4947 28.713 34.4641 28.764 34.4233 28.815C34.2295 29.0904 34.0255 29.3658 33.8215 29.631C33.7807 29.682 33.7399 29.733 33.7093 29.784C33.6277 29.8962 33.5359 29.9982 33.4441 30.1104C33.4135 30.1512 33.3829 30.1818 33.3523 30.2226C33.3319 30.2532 33.3115 30.2736 33.2911 30.3042C33.2605 30.3348 33.2299 30.3756 33.2095 30.4062C33.1483 30.4674 33.0973 30.5388 33.0361 30.6C32.9749 30.6612 32.9239 30.7326 32.8627 30.7938C32.8423 30.8142 32.8219 30.8346 32.8117 30.855C34.1683 28.5396 34.9435 25.8468 34.9435 22.9704C34.9435 21.369 34.7089 19.8288 34.2601 18.3804H30.3535C30.3535 13.5864 27.2935 9.5064 23.0095 7.9866L20.2147 28.4478C19.9189 28.458 19.6333 28.4682 19.3375 28.4682C19.0417 28.4682 18.7459 28.458 18.4603 28.4478L15.6655 7.9764C11.3815 9.4962 8.32153 13.5762 8.32153 18.3702H4.41494C3.96614 19.8186 3.73154 21.3588 3.73154 22.9602C3.73154 25.8366 4.50674 28.5294 5.86333 30.8448C5.84293 30.8244 5.82253 30.804 5.81233 30.7836C5.75113 30.7224 5.68994 30.651 5.63894 30.5898C5.57774 30.5286 5.52674 30.4572 5.46554 30.396C5.43494 30.3654 5.40434 30.3246 5.38394 30.294C5.36354 30.2634 5.34314 30.243 5.32274 30.2124C5.29214 30.1716 5.26154 30.141 5.23094 30.1002C5.13914 29.988 5.05754 29.886 4.96574 29.7738C4.92494 29.7228 4.88414 29.6718 4.85354 29.6208C4.64954 29.3556 4.44554 29.0802 4.25174 28.8048C4.21094 28.7538 4.18034 28.7028 4.13954 28.6518C4.12934 28.6314 4.11914 28.611 4.09874 28.6008C4.06814 28.5498 4.02734 28.4988 3.99674 28.4478C3.87434 28.2642 3.76214 28.0806 3.63974 27.8868C3.60914 27.846 3.58874 27.795 3.55814 27.7542C3.50714 27.6624 3.45614 27.5808 3.40514 27.489C3.37454 27.4278 3.33374 27.3768 3.30314 27.3156C3.23174 27.1932 3.17054 27.0708 3.09914 26.9484C3.02774 26.8158 2.95634 26.673 2.88494 26.5302C2.85434 26.4792 2.82374 26.418 2.80334 26.3568C2.75234 26.265 2.71154 26.163 2.67074 26.0712C2.65034 26.0202 2.62994 25.9692 2.59934 25.9284C2.56874 25.857 2.53814 25.7958 2.50754 25.7244C2.44634 25.5918 2.39534 25.4592 2.33414 25.3266C2.13014 24.837 1.94654 24.327 1.79354 23.817C1.77314 23.7456 1.75274 23.6844 1.73234 23.613C1.71194 23.5416 1.69154 23.4702 1.67114 23.3988C1.58954 23.1132 1.51814 22.8174 1.44674 22.5216C1.42634 22.4502 1.41614 22.3788 1.39574 22.3074V22.2972C1.38554 22.2258 1.36514 22.1442 1.34474 22.0728C1.33454 22.0116 1.31414 21.9402 1.30394 21.879C1.29374 21.8076 1.27334 21.7464 1.26314 21.675C1.25294 21.6036 1.23254 21.5322 1.22234 21.4608C1.19174 21.2874 1.16114 21.114 1.14074 20.9406C1.13054 20.859 1.12034 20.7876 1.11014 20.706C1.09994 20.655 1.09994 20.604 1.08974 20.553C1.07954 20.4816 1.06934 20.4 1.06934 20.3286C1.06934 20.298 1.05914 20.2776 1.05914 20.247C1.04894 20.094 1.02854 19.941 1.01834 19.788C1.00814 19.6758 0.99794 19.5636 0.99794 19.4514C0.99794 19.3698 0.98774 19.2882 0.98774 19.2168C0.98774 19.1454 0.977539 19.074 0.977539 18.9924C0.977539 18.9516 0.977539 18.9108 0.977539 18.8598C0.977539 18.7884 0.977539 18.717 0.977539 18.6456C0.977539 18.5538 0.977539 18.462 0.977539 18.36C0.977539 8.2212 9.19873 0 19.3375 0C29.4763 0 37.6975 8.2314 37.6975 18.3702Z" fill="#6E9E76"/>
<path d="M23.0095 7.97645L20.2147 28.4377V28.4581L20.0923 29.3454C19.8475 29.3658 19.5925 29.3761 19.3375 29.3761C19.0825 29.3761 18.8275 29.3658 18.5827 29.3454L18.4603 28.4581V28.4377L15.6655 7.97645C15.6757 7.96625 15.6961 7.96625 15.7063 7.96625C16.7671 7.59905 17.9095 7.38485 19.0927 7.35425C19.1743 7.35425 19.2559 7.35425 19.3273 7.35425C19.3987 7.35425 19.4905 7.35425 19.5619 7.35425C20.7451 7.38485 21.8875 7.58885 22.9483 7.96625C22.9789 7.96625 22.9891 7.97645 23.0095 7.97645Z" fill="#6E9E76"/>
<path d="M20.2148 28.4683L20.0924 29.3557L19.3478 34.8024L19.3376 34.8228L19.3274 34.8024L18.5829 29.3557L18.4604 28.4683H20.2148Z" fill="#6E9E76"/>
<path d="M34.2601 18.3702H30.3535C30.3535 13.5762 27.2936 9.49618 23.0096 7.97638L20.2148 28.4376V28.458L20.0924 29.3454L19.3478 34.7922L19.3376 34.8126L19.3274 34.7922L18.5828 29.3454L18.4604 28.458V28.4376L15.6656 7.97638C11.3816 9.49618 8.32162 13.5762 8.32162 18.3702H4.41504C6.02663 13.1376 10.3004 9.07798 15.6656 7.79278C16.7672 7.52758 17.9198 7.37458 19.103 7.36438C19.1846 7.36438 19.2662 7.36438 19.3376 7.36438C19.409 7.36438 19.5008 7.36438 19.5722 7.36438C20.7554 7.38478 21.8978 7.52758 23.0096 7.79278C28.3646 9.07798 32.6485 13.1376 34.2601 18.3702Z" fill="#6E9E76"/>
<path d="M23.0095 7.96619V7.97639L20.2147 28.4478V28.4682L20.0923 29.3556L19.3477 34.8024L19.3375 34.8942L19.3273 34.8024L18.5827 29.3556L18.4603 28.4682V28.4478L15.6655 7.97639V7.96619H23.0095Z" fill="#6E9E76"/>
</svg>
