<?xml version="1.0" encoding="utf-8"?>
<!-- Generator: Adobe Illustrator 24.1.2, SVG Export Plug-In . SVG Version: 6.00 Build 0)  -->
<svg version="1.1" id="Calque_1" xmlns="http://www.w3.org/2000/svg" xmlns:xlink="http://www.w3.org/1999/xlink" x="0px" y="0px"
	 viewBox="0 0 1000 1000" style="enable-background:new 0 0 1000 1000;" xml:space="preserve">
<style type="text/css">
	.st0{display:none;}
	.st1{display:inline;}
	.st2{fill:#FBB03B;}
	.st3{font-family:'MyriadPro-Regular';}
	.st4{font-size:34px;}
	.st5{letter-spacing:6;}
</style>
<g class="st0">
	<path class="st1" d="M27,90c1.9-6.5,4.2-12.9,6.4-19.3c3.1-6,6-12,9-18l18-36l2.6-5.2l2.6,5.2l18,36l9,18C94.8,77.1,97,83.5,99,90
		c-4-5.5-7.8-11.1-11.6-16.7l-9-18l-18-36h5.2l-18,36c-3,6-6,12-9,18C34.8,78.9,31.1,84.5,27,90z"/>
</g>
<g id="backup">
	<path class="st2" d="M684,540c0,0.9,0,1.8,0,2.8c0,0.7,0,1.4,0,2.1c0,0.4,0,0.8,0,1.3c0,0.7-0.1,1.4-0.1,2.2c0,0.8-0.1,1.6-0.1,2.3
		c-0.1,1.1-0.1,2.2-0.2,3.3c-0.1,1.5-0.3,3-0.4,4.5c0,0.3,0,0.5-0.1,0.8c-0.1,0.7-0.1,1.5-0.2,2.2c-0.1,0.5-0.1,1-0.2,1.5
		c-0.1,0.8-0.2,1.5-0.3,2.3c-0.2,1.7-0.5,3.4-0.8,5.1c-0.1,0.7-0.2,1.4-0.4,2.1c-0.1,0.7-0.2,1.3-0.4,2c-0.1,0.7-0.3,1.3-0.4,1.9
		c-0.2,0.7-0.3,1.5-0.5,2.2c0,0,0,0,0,0.1c-0.2,0.7-0.3,1.4-0.5,2.1c-0.7,2.9-1.4,5.8-2.2,8.6c-0.2,0.7-0.4,1.4-0.6,2.1
		c-0.2,0.7-0.4,1.3-0.6,2c-1.6,5-3.3,10-5.3,14.8c-0.5,1.3-1.1,2.6-1.7,3.9c-0.3,0.7-0.6,1.3-0.9,2c-0.2,0.5-0.4,1-0.7,1.4
		c-0.4,0.9-0.9,1.9-1.3,2.8c-0.3,0.6-0.5,1.1-0.8,1.7c-0.7,1.4-1.4,2.7-2.1,4.1c-0.7,1.2-1.3,2.4-2,3.6c-0.3,0.6-0.6,1.1-1,1.7
		c-0.5,0.9-1,1.8-1.5,2.6c-0.3,0.4-0.5,0.9-0.8,1.3c-1.1,1.9-2.3,3.7-3.5,5.5c-0.3,0.5-0.7,1-1,1.5c-0.1,0.2-0.2,0.3-0.4,0.5
		c-0.4,0.5-0.7,1-1.1,1.5c-1.9,2.7-3.9,5.4-5.9,8c-0.4,0.5-0.8,1-1.1,1.5c-0.8,1.1-1.7,2.1-2.6,3.2c-0.3,0.4-0.6,0.7-0.9,1.1
		c-0.2,0.3-0.4,0.5-0.6,0.8c-0.3,0.3-0.6,0.7-0.8,1c-0.6,0.6-1.1,1.3-1.7,1.9c-0.6,0.6-1.1,1.3-1.7,1.9c-0.2,0.2-0.4,0.4-0.5,0.6
		c13.3-22.7,20.9-49.1,20.9-77.3c0-15.7-2.3-30.8-6.7-45H684z"/>
	<path class="st2" d="M540,405v33.1c0,0,0,0,0,0l-27.4,200.6c-2.9,0.1-5.7,0.2-8.6,0.2s-5.8-0.1-8.6-0.2L468,438.1c0,0,0,0,0,0V405
		H540z"/>
	<path class="st2" d="M371.9,662.3c-0.2-0.2-0.4-0.4-0.5-0.6c-0.6-0.6-1.2-1.3-1.7-1.9c-0.6-0.6-1.1-1.3-1.7-1.9
		c-0.3-0.3-0.6-0.7-0.8-1c-0.2-0.3-0.4-0.5-0.6-0.8c-0.3-0.4-0.6-0.7-0.9-1.1c-0.9-1.1-1.7-2.1-2.6-3.2c-0.4-0.5-0.8-1-1.1-1.5
		c-2-2.6-4-5.3-5.9-8c-0.4-0.5-0.7-1-1.1-1.5c-0.1-0.2-0.2-0.4-0.4-0.5c-0.3-0.5-0.7-1-1-1.5c-1.2-1.8-2.3-3.6-3.5-5.5
		c-0.3-0.4-0.5-0.9-0.8-1.3c-0.5-0.9-1-1.7-1.5-2.6c-0.3-0.6-0.7-1.1-1-1.7c-0.7-1.2-1.3-2.4-2-3.6c-0.7-1.3-1.4-2.7-2.1-4.1
		c-0.3-0.5-0.6-1.1-0.8-1.7c-0.5-0.9-0.9-1.9-1.3-2.8c-0.2-0.5-0.4-1-0.7-1.4c-0.3-0.7-0.6-1.3-0.9-2c-0.6-1.3-1.1-2.6-1.7-3.9
		c-2-4.8-3.8-9.8-5.3-14.8c-0.2-0.7-0.4-1.3-0.6-2c-0.2-0.7-0.4-1.4-0.6-2.1c-0.8-2.8-1.5-5.7-2.2-8.6c-0.2-0.7-0.3-1.4-0.5-2.1
		c0,0,0-0.1,0-0.1c-0.1-0.7-0.3-1.5-0.5-2.2c-0.1-0.6-0.3-1.3-0.4-1.9c-0.1-0.7-0.3-1.3-0.4-2c-0.1-0.7-0.3-1.4-0.4-2.1
		c-0.3-1.7-0.6-3.4-0.8-5.1c-0.1-0.8-0.2-1.5-0.3-2.3c-0.1-0.5-0.1-1-0.2-1.5c-0.1-0.7-0.2-1.5-0.2-2.2c0-0.3-0.1-0.5-0.1-0.8
		c-0.1-1.5-0.3-3-0.4-4.5c-0.1-1.1-0.2-2.2-0.2-3.3c0-0.8-0.1-1.6-0.1-2.3c0-0.7-0.1-1.4-0.1-2.2c0-0.4,0-0.8,0-1.3
		c0-0.7,0-1.4,0-2.1c0-0.9,0-1.8,0-2.8h33.7c-4.4,14.2-6.7,29.3-6.7,45C351,613.2,358.6,639.6,371.9,662.3z"/>
	<path class="st2" d="M684,540c0,0.9,0,1.8,0,2.8c0,0.7,0,1.4,0,2.1c0,0.4,0,0.8,0,1.3c0,0.7-0.1,1.4-0.1,2.2c0,0.8-0.1,1.6-0.1,2.3
		c-0.1,1.1-0.1,2.2-0.2,3.3c-0.1,1.5-0.3,3-0.4,4.5c0,0.3,0,0.5-0.1,0.8c-0.1,0.7-0.1,1.5-0.2,2.2c-0.1,0.5-0.1,1-0.2,1.5
		c-0.1,0.8-0.2,1.5-0.3,2.3c-0.2,1.7-0.5,3.4-0.8,5.1c-0.1,0.7-0.2,1.4-0.4,2.1c-0.1,0.7-0.2,1.3-0.4,2c-0.1,0.7-0.3,1.3-0.4,1.9
		c-0.2,0.7-0.3,1.5-0.5,2.2c0,0,0,0,0,0.1c-0.2,0.7-0.3,1.4-0.5,2.1c-0.7,2.9-1.4,5.8-2.2,8.6c-0.2,0.7-0.4,1.4-0.6,2.1
		c-0.2,0.7-0.4,1.3-0.6,2c-1.6,5-3.3,10-5.3,14.8c-0.5,1.3-1.1,2.6-1.7,3.9c-0.3,0.7-0.6,1.3-0.9,2c-0.2,0.5-0.4,1-0.7,1.4
		c-0.4,0.9-0.9,1.9-1.3,2.8c-0.3,0.6-0.5,1.1-0.8,1.7c-0.7,1.4-1.4,2.7-2.1,4.1c-0.7,1.2-1.3,2.4-2,3.6c-0.3,0.6-0.6,1.1-1,1.7
		c-0.5,0.9-1,1.8-1.5,2.6c-0.3,0.4-0.5,0.9-0.8,1.3c-1.1,1.9-2.3,3.7-3.5,5.5c-0.3,0.5-0.7,1-1,1.5c-0.1,0.2-0.2,0.3-0.4,0.5
		c-0.4,0.5-0.7,1-1.1,1.5c-1.9,2.7-3.9,5.4-5.9,8c-0.4,0.5-0.8,1-1.1,1.5c-0.8,1.1-1.7,2.1-2.6,3.2c-0.3,0.4-0.6,0.7-0.9,1.1
		c-0.2,0.3-0.4,0.5-0.6,0.8c-0.3,0.3-0.6,0.7-0.8,1c-0.6,0.6-1.1,1.3-1.7,1.9c-0.6,0.6-1.1,1.3-1.7,1.9c-0.2,0.2-0.4,0.4-0.5,0.6
		c13.3-22.7,20.9-49.1,20.9-77.3c0-15.7-2.3-30.8-6.7-45H612c0-47-30-87-72-101.9c0,0,0,0,0,0l-27.4,200.6c-2.9,0.1-5.7,0.2-8.6,0.2
		s-5.8-0.1-8.6-0.2L468,438.1c0,0,0,0,0,0C426,453,396,493,396,540h-38.3c-4.4,14.2-6.7,29.3-6.7,45c0,28.2,7.6,54.6,20.9,77.3
		c-0.2-0.2-0.4-0.4-0.5-0.6c-0.6-0.6-1.2-1.3-1.7-1.9c-0.6-0.6-1.1-1.3-1.7-1.9c-0.3-0.3-0.6-0.7-0.8-1c-0.2-0.3-0.4-0.5-0.6-0.8
		c-0.3-0.4-0.6-0.7-0.9-1.1c-0.9-1.1-1.7-2.1-2.6-3.2c-0.4-0.5-0.8-1-1.1-1.5c-2-2.6-4-5.3-5.9-8c-0.4-0.5-0.7-1-1.1-1.5
		c-0.1-0.2-0.2-0.4-0.4-0.5c-0.3-0.5-0.7-1-1-1.5c-1.2-1.8-2.3-3.6-3.5-5.5c-0.3-0.4-0.5-0.9-0.8-1.3c-0.5-0.9-1-1.7-1.5-2.6
		c-0.3-0.6-0.7-1.1-1-1.7c-0.7-1.2-1.3-2.4-2-3.6c-0.7-1.3-1.4-2.7-2.1-4.1c-0.3-0.5-0.6-1.1-0.8-1.7c-0.5-0.9-0.9-1.9-1.3-2.8
		c-0.2-0.5-0.4-1-0.7-1.4c-0.3-0.7-0.6-1.3-0.9-2c-0.6-1.3-1.1-2.6-1.7-3.9c-2-4.8-3.8-9.8-5.3-14.8c-0.2-0.7-0.4-1.3-0.6-2
		c-0.2-0.7-0.4-1.4-0.6-2.1c-0.8-2.8-1.5-5.7-2.2-8.6c-0.2-0.7-0.3-1.4-0.5-2.1c0,0,0-0.1,0-0.1c-0.1-0.7-0.3-1.5-0.5-2.2
		c-0.1-0.6-0.3-1.3-0.4-1.9c-0.1-0.7-0.3-1.3-0.4-2c-0.1-0.7-0.3-1.4-0.4-2.1c-0.3-1.7-0.6-3.4-0.8-5.1c-0.1-0.8-0.2-1.5-0.3-2.3
		c-0.1-0.5-0.1-1-0.2-1.5c-0.1-0.7-0.2-1.5-0.2-2.2c0-0.3-0.1-0.5-0.1-0.8c-0.1-1.5-0.3-3-0.4-4.5c-0.1-1.1-0.2-2.2-0.2-3.3
		c0-0.8-0.1-1.6-0.1-2.3c0-0.7-0.1-1.4-0.1-2.2c0-0.4,0-0.8,0-1.3c0-0.7,0-1.4,0-2.1c0-0.9,0-1.8,0-2.8c0-99.4,80.6-180,180-180
		S684,440.6,684,540z"/>
	<path class="st2" d="M540,438.1l-27.4,200.6l0,0.2l-1.2,8.7c-2.4,0.2-4.9,0.3-7.4,0.3s-5-0.1-7.4-0.3l-1.2-8.7l0-0.2L468,438.1
		c0.1-0.1,0.3-0.1,0.4-0.1c10.4-3.6,21.6-5.7,33.2-6c0.8,0,1.6,0,2.3,0s1.6,0,2.3,0c11.6,0.3,22.8,2.3,33.2,6
		C539.7,438,539.8,438.1,540,438.1z"/>
	<polygon class="st2" points="512.6,639 511.4,647.7 504.1,701.1 504,701.3 503.9,701.1 496.6,647.7 495.4,639 	"/>
	<path class="st2" d="M650.3,540H612c0-47-30-87-72-101.9c0,0,0,0,0,0l-27.4,200.6l0,0.2l-1.2,8.7l-7.3,53.4l-0.1,0.2l-0.1-0.2
		l-7.3-53.4l-1.2-8.7l0-0.2L468,438.1c0,0,0,0,0,0C426,453,396,493,396,540h-38.3c15.8-51.3,57.7-91.1,110.3-103.7
		c10.8-2.6,22.1-4.1,33.7-4.2c0.8,0,1.6,0,2.3,0s1.6,0,2.3,0c11.6,0.2,22.8,1.6,33.7,4.2C592.5,448.9,634.5,488.7,650.3,540z"/>
	<polygon class="st2" points="540,438 540,438.1 512.6,638.8 512.6,639 511.4,647.7 504.1,701.1 504,702 503.9,701.1 496.6,647.7 
		495.4,639 495.4,638.8 468,438.1 468,438 	"/>
</g>
<g class="st0">
	<path class="st1" d="M468.4,438c-0.1,0-0.3,0.1-0.4,0.1c0,0,0,0,0,0V438H468.4z"/>
	<path class="st1" d="M540,438v0.1c0,0,0,0,0,0c-0.1-0.1-0.3-0.1-0.4-0.1H540z"/>
	<g class="st1">
		<path d="M684,540c0,0.9,0,1.8,0,2.8c0,0.7,0,1.4,0,2.1c0,0.4,0,0.8,0,1.3c0,0.7-0.1,1.4-0.1,2.2c0,0.8-0.1,1.6-0.1,2.3
			c-0.1,1.1-0.1,2.2-0.2,3.3c-0.1,1.5-0.3,3-0.4,4.5c0,0.3,0,0.5-0.1,0.8c-0.1,0.7-0.1,1.5-0.2,2.2c-0.1,0.5-0.1,1-0.2,1.5
			c-0.1,0.8-0.2,1.5-0.3,2.3c-0.2,1.7-0.5,3.4-0.8,5.1c-0.1,0.7-0.2,1.4-0.4,2.1c-0.1,0.7-0.2,1.3-0.4,2c-0.1,0.7-0.3,1.3-0.4,1.9
			c-0.2,0.7-0.3,1.5-0.5,2.2c0,0,0,0,0,0.1c-0.2,0.7-0.3,1.4-0.5,2.1c-0.7,2.9-1.4,5.8-2.2,8.6c-0.2,0.7-0.4,1.4-0.6,2.1
			c-0.2,0.7-0.4,1.3-0.6,2c-1.6,5-3.3,10-5.3,14.8c-0.5,1.3-1.1,2.6-1.7,3.9c-0.3,0.7-0.6,1.3-0.9,2c-0.2,0.5-0.4,1-0.7,1.4
			c-0.4,0.9-0.9,1.9-1.3,2.8c-0.3,0.6-0.5,1.1-0.8,1.7c-0.7,1.4-1.4,2.7-2.1,4.1c-0.7,1.2-1.3,2.4-2,3.6c-0.3,0.6-0.6,1.1-1,1.7
			c-0.5,0.9-1,1.8-1.5,2.6c-0.3,0.4-0.5,0.9-0.8,1.3c-1.1,1.9-2.3,3.7-3.5,5.5c-0.3,0.5-0.7,1-1,1.5c-0.1,0.2-0.2,0.3-0.4,0.5
			c-0.4,0.5-0.7,1-1.1,1.5c-1.9,2.7-3.9,5.4-5.9,8c-0.4,0.5-0.8,1-1.1,1.5c-0.8,1.1-1.7,2.1-2.6,3.2c-0.3,0.4-0.6,0.7-0.9,1.1
			c-0.2,0.3-0.4,0.5-0.6,0.8c-0.3,0.3-0.6,0.7-0.8,1c-0.6,0.6-1.1,1.3-1.7,1.9c-0.6,0.6-1.1,1.3-1.7,1.9c-0.2,0.2-0.4,0.4-0.5,0.6
			c13.3-22.7,20.9-49.1,20.9-77.3c0-15.7-2.3-30.8-6.7-45H612c0-47-30-87-72-101.9V438h-0.4c0.1,0,0.3,0.1,0.4,0.1l-23.6,173.2
			l-3.7,27.4l0,0.2l-1.2,8.7l-7.3,53.4l-0.1,0.2l-0.1-0.2l-7.3-53.4l-1.2-8.7l0-0.2l-3.7-27.4L468,438.1c0.1-0.1,0.3-0.1,0.4-0.1
			H468v0.1C426,453,396,493,396,540h-38.3c-4.4,14.2-6.7,29.3-6.7,45c0,28.2,7.6,54.6,20.9,77.3c-0.2-0.2-0.4-0.4-0.5-0.6
			c-0.6-0.6-1.2-1.3-1.7-1.9c-0.6-0.6-1.1-1.3-1.7-1.9c-0.3-0.3-0.6-0.7-0.8-1c-0.2-0.3-0.4-0.5-0.6-0.8c-0.3-0.4-0.6-0.7-0.9-1.1
			c-0.9-1.1-1.7-2.1-2.6-3.2c-0.4-0.5-0.8-1-1.1-1.5c-2-2.6-4-5.3-5.9-8c-0.4-0.5-0.7-1-1.1-1.5c-0.1-0.2-0.2-0.4-0.4-0.5
			c-0.3-0.5-0.7-1-1-1.5c-1.2-1.8-2.3-3.6-3.5-5.5c-0.3-0.4-0.5-0.9-0.8-1.3c-0.5-0.9-1-1.7-1.5-2.6c-0.3-0.6-0.7-1.1-1-1.7
			c-0.7-1.2-1.3-2.4-2-3.6c-0.7-1.3-1.4-2.7-2.1-4.1c-0.3-0.5-0.6-1.1-0.8-1.7c-0.5-0.9-0.9-1.9-1.3-2.8c-0.2-0.5-0.4-1-0.7-1.4
			c-0.3-0.7-0.6-1.3-0.9-2c-0.6-1.3-1.1-2.6-1.7-3.9c-2-4.8-3.8-9.8-5.3-14.8c-0.2-0.7-0.4-1.3-0.6-2c-0.2-0.7-0.4-1.4-0.6-2.1
			c-0.8-2.8-1.5-5.7-2.2-8.6c-0.2-0.7-0.3-1.4-0.5-2.1c0,0,0-0.1,0-0.1c-0.1-0.7-0.3-1.5-0.5-2.2c-0.1-0.6-0.3-1.3-0.4-1.9
			c-0.1-0.7-0.3-1.3-0.4-2c-0.1-0.7-0.3-1.4-0.4-2.1c-0.3-1.7-0.6-3.4-0.8-5.1c-0.1-0.8-0.2-1.5-0.3-2.3c-0.1-0.5-0.1-1-0.2-1.5
			c-0.1-0.7-0.2-1.5-0.2-2.2c0-0.3-0.1-0.5-0.1-0.8c-0.1-1.5-0.3-3-0.4-4.5c-0.1-1.1-0.2-2.2-0.2-3.3c0-0.8-0.1-1.6-0.1-2.3
			c0-0.7-0.1-1.4-0.1-2.2c0-0.4,0-0.8,0-1.3c0-0.7,0-1.4,0-2.1c0-0.9,0-1.8,0-2.8c0-74.1,44.8-137.8,108.9-165.4
			c1.3-0.5,2.5-1.1,3.8-1.6c5.2-2.1,10.6-4,16-5.6c0,0,0,0,0,0c5-1.5,10.1-2.8,15.3-3.8V423h72v-59.4c5.2,1,10.3,2.3,15.3,3.8
			c5.4,1.6,10.8,3.5,16,5.6c0,0,0,0,0,0c1.3,0.5,2.5,1,3.8,1.6c0,0,0,0,0,0C639.2,402.2,684,465.9,684,540z"/>
	</g>
	<path class="st1" d="M468.4,438c-0.1,0-0.3,0.1-0.4,0.1c0,0,0,0,0,0V438H468.4z"/>
	<path class="st1" d="M540,438v0.1c0,0,0,0,0,0c-0.1-0.1-0.3-0.1-0.4-0.1H540z"/>
	<path class="st1" d="M468.4,438c-0.1,0-0.3,0.1-0.4,0.1c0,0,0,0,0,0V438H468.4z"/>
	<path class="st1" d="M540,438v0.1c0,0,0,0,0,0c-0.1-0.1-0.3-0.1-0.4-0.1H540z"/>
	<path class="st1" d="M468.4,438c-0.1,0-0.3,0.1-0.4,0.1l0-0.1H468.4z"/>
	<polygon class="st1" points="504.1,701.1 504,702 503.9,701.1 504,701.3 	"/>
	<path class="st1" d="M540,438l0,0.1c-0.1-0.1-0.3-0.1-0.4-0.1H540z"/>
	<path class="st1" d="M468,348.9v19.5c-10.8,1.1-21.3,2.6-31.3,4.6C455.2,368.8,468,359.6,468,348.9z"/>
	<path class="st1" d="M571.3,373c-10-2-20.5-3.5-31.3-4.6v-19.5C540,359.6,552.8,368.8,571.3,373z"/>
	<path class="st1" d="M540,353.3v15.1c-11.6-1.2-23.7-1.8-36-1.8s-24.4,0.6-36,1.8v-17.7L503.6,225L540,353.3z"/>
	<path class="st1" d="M540,363.6V423h-72v-59.4c11.6-2.4,23.7-3.6,36-3.6S528.4,361.2,540,363.6z"/>
	<polygon class="st1" points="540,353.3 467.3,353.3 468,350.7 503.6,225 	"/>
	<path class="st1" d="M621,495c0,16-3.2,31.1-9,45h0c0-47-30-87-72-101.9c0,0,0,0,0,0l-23.6,173.2c-4.1,0.4-8.2,0.7-12.4,0.7
		s-8.3-0.2-12.4-0.7L468,438.1c0,0,0,0,0,0C426,453,396,493,396,540h0c-5.8-13.9-9-29-9-45c0-52.1,34-96.2,81-111.4
		c11.3-3.7,23.4-5.6,36-5.6s24.7,2,36,5.6C587,398.8,621,442.9,621,495z"/>
</g>
<text transform="matrix(1 0 0 1 441 756)" class="st0 st3 st4 st5">design</text>
</svg>
